# xmcd CD database file
#
# Track frame offsets:
#	187
#	14257
#	27632
#	40220
#	57782
#	75720
#	91045
#	104712
#	118622
#	132345
#	144345
#	156887
#	171387
#	188600
#	204425
#	218575
#	232287
#	249687
#	259685
#	278020
#
# Disc length: 3912 seconds
#
# Revision: 0
# Processed by: cddbd v1.5.1PL2 Copyright (c) Steve Scherf et al.
# Submitted via: CDex 1.60beta1-cs1
#
DISCID=1b0f4614
DTITLE=Dolly Parton - Greatest Hits [Columbia River] Disc 1
DYEAR=1999
DGENRE=Country
TTITLE0=I Will Always Love You
TTITLE1=Here You Come Again
TTITLE2=Help!
TTITLE3=Great Balls Of Fire
TTITLE4=Starting Over Again
TTITLE5=Old Flames Can't Hold A Candle To You
TTITLE6=Joshua
TTITLE7=Coat Of Many Colors
TTITLE8=My Tennessee Mountain Home
TTITLE9=Jolene
TTITLE10=9 To 5
TTITLE11=Heartbreak Express
TTITLE12=My Blue Ridge Mountain Boy
TTITLE13=Release Me
TTITLE14=Send Me The Pillow You Dream On
TTITLE15=I Really Don't Want To Know
TTITLE16=Save The Last Dance For Me
TTITLE17=Making Plans (With Porter Wagoner)
TTITLE18=Do I Ever Cross Your Mind
TTITLE19=Applejack
EXTD=YEAR: 1999
EXTT0=
EXTT1=
EXTT2=
EXTT3=
EXTT4=
EXTT5=
EXTT6=
EXTT7=
EXTT8=
EXTT9=
EXTT10=
EXTT11=
EXTT12=
EXTT13=
EXTT14=
EXTT15=
EXTT16=
EXTT17=
EXTT18=
EXTT19=
PLAYORDER=
